<svg xmlns="http://www.w3.org/2000/svg" width="32" height="32" viewBox="0 0 32 32">
  <defs>
    <linearGradient id="gradient" x1="0%" y1="0%" x2="100%" y2="100%">
      <stop offset="0%" stop-color="#7747e3" />
      <stop offset="100%" stop-color="#5e35b1" />
    </linearGradient>
  </defs>
  <circle cx="16" cy="16" r="16" fill="url(#gradient)" />
  
  <!-- Paw Print Design -->
  <path d="M11.5,9c-1.4,0-2.5,1.4-2.5,3.2c0,1.8,1.1,3.2,2.5,3.2s2.5-1.4,2.5-3.2C14,10.4,12.9,9,11.5,9z" fill="white"/>
  <path d="M20.5,9c-1.4,0-2.5,1.4-2.5,3.2c0,1.8,1.1,3.2,2.5,3.2s2.5-1.4,2.5-3.2C23,10.4,21.9,9,20.5,9z" fill="white"/>
  <path d="M9,15.5c-1.2-0.7-2.7-0.1-3.3,1.5C5,18.5,5.5,20,6.7,20.7c1.2,0.7,2.7,0.1,3.3-1.5C10.7,17.7,10.2,16.2,9,15.5z" fill="white"/>
  <path d="M23,15.5c-1.2,0.7-1.7,2.2-1.1,3.7c0.6,1.6,2.1,2.2,3.3,1.5c1.2-0.7,1.7-2.2,1.1-3.7C25.7,15.4,24.2,14.8,23,15.5z" fill="white"/>
  <path d="M16,15c-2.9,0-5.2,3.3-5.2,6c0,1.8,2.3,3.5,5.2,3.5c2.9,0,5.2-1.7,5.2-3.5C21.2,18.3,18.9,15,16,15z" fill="white"/>
</svg> 