<svg xmlns="http://www.w3.org/2000/svg" width="32" height="32" viewBox="0 0 32 32">
  <defs>
    <linearGradient id="gradient" x1="0%" y1="0%" x2="100%" y2="100%">
      <stop offset="0%" stop-color="#7747e3" />
      <stop offset="100%" stop-color="#5e35b1" />
    </linearGradient>
  </defs>
  <circle cx="16" cy="16" r="16" fill="url(#gradient)" />
  
  <!-- Modern Pet Bowl -->
  <path d="M25,19c0,1.1-0.9,2-2,2H9c-1.1,0-2-0.9-2-2v-1c0-4.4,4-8,9-8s9,3.6,9,8V19z" fill="white"/>
  <path d="M22,21H10c-0.6,0-1,0.4-1,1v1c0,0.6,0.4,1,1,1h12c0.6,0,1-0.4,1-1v-1C23,21.4,22.6,21,22,21z" fill="#f5f5f5"/>
  
  <!-- Bone icon -->
  <path d="M19.5,12.5c-0.8-0.8-2-0.8-2.8,0L12.5,17c-0.8,0.8-0.8,2,0,2.8c0.8,0.8,2,0.8,2.8,0L19.5,16C20.3,15.2,20.3,13.3,19.5,12.5z" fill="#FFB74D"/>
  <circle cx="11.5" cy="18.5" r="1.5" fill="#FFB74D"/>
  <circle cx="20.5" cy="11.5" r="1.5" fill="#FFB74D"/>
</svg> 